<?xml version="1.0" encoding="utf-8"?>
<!-- Generator: Adobe Illustrator 23.0.3, SVG Export Plug-In . SVG Version: 6.00 Build 0)  -->
<svg version="1.1" xmlns="http://www.w3.org/2000/svg" xmlns:xlink="http://www.w3.org/1999/xlink" x="0px" y="0px"
	 viewBox="0 0 577.67 589.98" style="enable-background:new 0 0 577.67 589.98;" xml:space="preserve">
<style type="text/css">
	.st0{fill:url(#Principal_1_);}
	.st1{fill:url(#SVGID_1_);}
	.st2{fill:url(#SVGID_2_);}
	.st3{fill:url(#SVGID_3_);}
	.st4{opacity:0.6;fill:#107003;}
	.st5{opacity:0.59;fill:#15510E;}
	.st6{opacity:0.69;fill:#15510E;}
	.st7{fill:#008B1E;}
	.st8{fill:#027A0E;}
	.st9{fill:url(#SVGID_4_);}
	.st10{opacity:0.46;fill:#4C660A;}
</style>
<g id="Letra_J">
	<linearGradient id="Principal_1_" gradientUnits="userSpaceOnUse" x1="288.3333" y1="548.5162" x2="288.3333" y2="158.4915">
		<stop  offset="0" style="stop-color:#007B45"/>
		<stop  offset="0.214" style="stop-color:#27A32E"/>
		<stop  offset="0.4354" style="stop-color:#47C51A"/>
		<stop  offset="0.6461" style="stop-color:#5FDD0C"/>
		<stop  offset="0.8397" style="stop-color:#6DEC03"/>
		<stop  offset="1" style="stop-color:#72F100"/>
	</linearGradient>
	<path id="Principal" class="st0" d="M162.44,415.42c5.63-5.24,13.64-9.56,24.89-9.93c0,0,39,1,38,39c0,0-3,29,62,28c0,0,55,5,63-38
		c0.33-66.33,0.67-132.67,1-199h-65c-3.64-0.82-16.12-4.11-25-16c-5.89-7.89-7.49-15.93-8-20c-0.27-2.33,0-17,9-29
		c8.76-9.84,20.01-11.62,23-12h73c0,0,30,3,48,26c0,0,16,20,19,53l1,206c0,0-3,51-46,81c0,0-26,24-94,24
		c0,0-57.11,1.94-101.81-28.48c-1.61-1.1-3.08-2.39-4.42-3.81c-5.07-5.37-17.56-19.62-24.68-36.59c-3.45-8.23-5.09-17.11-5.09-26.03
		v-9.56C150.33,433.25,154.56,422.78,162.44,415.42z"/>
	<linearGradient id="SVGID_1_" gradientUnits="userSpaceOnUse" x1="409.2325" y1="508.5826" x2="276.2559" y2="278.2602">
		<stop  offset="0" style="stop-color:#4FA047"/>
		<stop  offset="1" style="stop-color:#B4D435"/>
	</linearGradient>
	<path class="st1" d="M293.33,548.49c0,0,66,3,102-37c0,0,29-29,31-69v-116c0,0-1-56-38-80c0,0-17-9-38-11v216
		C350.33,451.49,348.33,539.49,293.33,548.49z"/>
	<linearGradient id="SVGID_2_" gradientUnits="userSpaceOnUse" x1="412.4857" y1="338.4865" x2="300.7998" y2="145.0407">
		<stop  offset="0" style="stop-color:#00A545"/>
		<stop  offset="1" style="stop-color:#F8E900"/>
	</linearGradient>
	<path class="st2" d="M426.33,330.49c0,0-6-64-35-82c0,0-16-11-40-13h-63.04c-3.42,0-6.8-0.67-9.94-2.02
		c-8.6-3.68-23.6-13.29-25.02-35.98c0,0,0-36,30-39h75c0,0,39,5,53,34c0,0,14,22,15,52V330.49z"/>
	<linearGradient id="SVGID_3_" gradientUnits="userSpaceOnUse" x1="218.7778" y1="405.4668" x2="218.7778" y2="548.5219">
		<stop  offset="0" style="stop-color:#EAF137"/>
		<stop  offset="1" style="stop-color:#3D8F33"/>
	</linearGradient>
	<path class="st3" d="M287.33,548.49c0,0-32-2-45-26c0,0-12-16-16-57v-22c0,0,1-35-38-38c0,0-24.45-1.75-35.81,24.13
		c-1.49,3.4-2.25,7.07-2.28,10.78c-0.08,8.49,0.14,25.7,3.1,33.08c0,0,14,40,40,52C193.33,525.49,233.33,549.49,287.33,548.49z"/>
	<path class="st4" d="M350.33,235.49c35.85,2.97,47.46,18.46,51,22c23,23,25,66,25,66c-4.34-24.61-15.44-43.52-21.99-53.1
		c-4.36-6.38-10.05-11.77-16.8-15.53c-10.5-5.83-21.21-8.37-21.21-8.37c-6.31-1.72-10.32-2.78-12.59-3.38
		c-1.4-0.37-2.51-1.41-3.02-2.77L350.33,235.49z"/>
	<path class="st5" d="M287.33,548.49c0,0-30-2-43-37c0,0-7.2-19.79-7.94-44.86c-0.07-2.4-1.11-4.69-2.94-6.25
		c-2.29-1.95-5.38-5.25-7.12-9.89c0,0-3,36,15,71C241.33,521.49,253.33,546.49,287.33,548.49z"/>
	<path class="st6" d="M285.33,548.49c0,0,24,5,46-26c0,0,19-25,19-87c0,0-2.61,11.31-8.64,18.51c-0.86,1.03-1.36,2.31-1.39,3.65
		c-0.15,7.9-3.16,35.67-9.97,51.85C330.33,509.49,317.33,549.49,285.33,548.49z"/>
</g>
<g id="Folhas">
	<g>
		<g>
			<g id="Folha_2">
				<path class="st7" d="M213.33,129.49c0,0-18,3-34,13c0,0,12,34,47,42c0,0,34,5,47-11c0,0-22-7-34-16
					C239.33,157.49,225.33,150.49,213.33,129.49z"/>
				<path class="st8" d="M189.33,145.49l50,12c0,0-6.62-3.61-9.81-7.3C229.53,150.19,213.33,149.49,189.33,145.49z"/>
			</g>
			<g id="Folha_1">
				<linearGradient id="SVGID_4_" gradientUnits="userSpaceOnUse" x1="246.3288" y1="36.4915" x2="246.3288" y2="173.4915">
					<stop  offset="0" style="stop-color:#EAF137"/>
					<stop  offset="1" style="stop-color:#3D8F33"/>
				</linearGradient>
				<path class="st9" d="M273.33,173.49c0,0,35-40,10-88c0,0-16-35-72-49c0,0-21,42-5,82C206.33,118.49,219.33,158.49,273.33,173.49
					z"/>
				<path class="st10" d="M263.3,170.26l10.04,3.23l2.51-3.23c0,0-3.51-48.77-31.51-85.77c0,0-24-29-33-48c0,0,8,18,24,43
					C253.76,108.28,264.94,150.75,263.3,170.26z"/>
			</g>
		</g>
	</g>
</g>
</svg>
